<svg xmlns="http://www.w3.org/2000/svg" width="620" height="142" viewBox="0 0 620 142" fill="none" font-family="ui-monospace,SFMono-Regular,Menlo,Monaco,Consolas,&#x27;Liberation Mono&#x27;,&#x27;Courier New&#x27;,monospace"><style>.data-fill{fill:#6e7681}.data-stroke{stroke:#6e7681}.emph-fill{fill:#24292f}.dim-fill{fill:#8c959f}.rule-stroke{stroke:#d0d7de}.surface-stroke{stroke:#ffffff}.area-fill{fill:#6e7681;opacity:.13}@media(prefers-color-scheme:dark){.data-fill{fill:#c9d1d9}.data-stroke{stroke:#c9d1d9}.emph-fill{fill:#f0f6fc}.dim-fill{fill:#8b949e}.rule-stroke{stroke:#30363d}.surface-stroke{stroke:#0d1117}.area-fill{fill:#c9d1d9;opacity:.16}}</style><text x="0.0" y="59.0" font-size="9" class="dim-fill">tue</text><text x="0.0" y="89.0" font-size="9" class="dim-fill">thu</text><text x="0.0" y="119.0" font-size="9" class="dim-fill">sat</text><text x="34.0" y="11.0" font-size="9" class="dim-fill">aug</text><text x="88.0" y="11.0" font-size="9" class="dim-fill">sep</text><text x="131.2" y="11.0" font-size="9" class="dim-fill">oct</text><text x="174.4" y="11.0" font-size="9" class="dim-fill">nov</text><text x="228.4" y="11.0" font-size="9" class="dim-fill">dec</text><text x="271.6" y="11.0" font-size="9" class="dim-fill">jan</text><text x="325.6" y="11.0" font-size="9" class="dim-fill">feb</text><text x="368.8" y="11.0" font-size="9" class="dim-fill">mar</text><text x="412.0" y="11.0" font-size="9" class="dim-fill">apr</text><text x="455.2" y="11.0" font-size="9" class="dim-fill">may</text><text x="509.2" y="11.0" font-size="9" class="dim-fill">jun</text><text x="552.4" y="11.0" font-size="9" class="dim-fill">jul</text><clipPath id="year-reveal"><rect x="34.0" y="20.0" width="0" height="113.0"><animate attributeName="width" from="0" to="576.4" begin="0.20s" dur="1.55s" fill="freeze"/></rect></clipPath><g clip-path="url(#year-reveal)"><text x="34.0" y="125.0" font-size="12" class="dim-fill"> </text><text x="44.8" y="35.0" font-size="12" class="dim-fill"> </text><text x="44.8" y="50.0" font-size="12" class="data-fill">:</text><text x="44.8" y="65.0" font-size="12" class="data-fill">:</text><text x="44.8" y="80.0" font-size="12" class="dim-fill"> </text><text x="44.8" y="95.0" font-size="12" class="dim-fill"> </text><text x="44.8" y="110.0" font-size="12" class="dim-fill"> </text><text x="44.8" y="125.0" font-size="12" class="dim-fill"> </text><text x="55.6" y="35.0" font-size="12" class="dim-fill"> </text><text x="55.6" y="50.0" font-size="12" class="dim-fill"> </text><text x="55.6" y="65.0" font-size="12" class="dim-fill"> </text><text x="55.6" y="80.0" font-size="12" class="dim-fill"> </text><text x="55.6" y="95.0" font-size="12" class="dim-fill"> </text><text x="55.6" y="110.0" font-size="12" class="dim-fill"> </text><text x="55.6" y="125.0" font-size="12" class="dim-fill"> </text><text x="66.4" y="35.0" font-size="12" class="dim-fill"> </text><text x="66.4" y="50.0" font-size="12" class="data-fill">:</text><text x="66.4" y="65.0" font-size="12" class="dim-fill"> </text><text x="66.4" y="80.0" font-size="12" class="dim-fill"> </text><text x="66.4" y="95.0" font-size="12" class="dim-fill"> </text><text x="66.4" y="110.0" font-size="12" class="dim-fill"> </text><text x="66.4" y="125.0" font-size="12" class="dim-fill"> </text><text x="77.2" y="35.0" font-size="12" class="dim-fill"> </text><text x="77.2" y="50.0" font-size="12" class="data-fill">:</text><text x="77.2" y="65.0" font-size="12" class="dim-fill"> </text><text x="77.2" y="80.0" font-size="12" class="dim-fill"> </text><text x="77.2" y="95.0" font-size="12" class="dim-fill"> </text><text x="77.2" y="110.0" font-size="12" class="dim-fill"> </text><text x="77.2" y="125.0" font-size="12" class="dim-fill"> </text><text x="88.0" y="35.0" font-size="12" class="dim-fill"> </text><text x="88.0" y="50.0" font-size="12" class="data-fill">:</text><text x="88.0" y="65.0" font-size="12" class="dim-fill"> </text><text x="88.0" y="80.0" font-size="12" class="dim-fill"> </text><text x="88.0" y="95.0" font-size="12" class="dim-fill"> </text><text x="88.0" y="110.0" font-size="12" class="dim-fill"> </text><text x="88.0" y="125.0" font-size="12" class="dim-fill"> </text><text x="98.8" y="35.0" font-size="12" class="dim-fill"> </text><text x="98.8" y="50.0" font-size="12" class="data-fill">:</text><text x="98.8" y="65.0" font-size="12" class="dim-fill"> </text><text x="98.8" y="80.0" font-size="12" class="dim-fill"> </text><text x="98.8" y="95.0" font-size="12" class="dim-fill"> </text><text x="98.8" y="110.0" font-size="12" class="dim-fill"> </text><text x="98.8" y="125.0" font-size="12" class="dim-fill"> </text><text x="109.6" y="35.0" font-size="12" class="dim-fill"> </text><text x="109.6" y="50.0" font-size="12" class="dim-fill"> </text><text x="109.6" y="65.0" font-size="12" class="dim-fill"> </text><text x="109.6" y="80.0" font-size="12" class="dim-fill"> </text><text x="109.6" y="95.0" font-size="12" class="dim-fill"> </text><text x="109.6" y="110.0" font-size="12" class="dim-fill"> </text><text x="109.6" y="125.0" font-size="12" class="dim-fill"> </text><text x="120.4" y="35.0" font-size="12" class="dim-fill"> </text><text x="120.4" y="50.0" font-size="12" class="dim-fill"> </text><text x="120.4" y="65.0" font-size="12" class="dim-fill"> </text><text x="120.4" y="80.0" font-size="12" class="dim-fill"> </text><text x="120.4" y="95.0" font-size="12" class="dim-fill"> </text><text x="120.4" y="110.0" font-size="12" class="dim-fill"> </text><text x="120.4" y="125.0" font-size="12" class="dim-fill"> </text><text x="131.2" y="35.0" font-size="12" class="dim-fill"> </text><text x="131.2" y="50.0" font-size="12" class="dim-fill"> </text><text x="131.2" y="65.0" font-size="12" class="dim-fill"> </text><text x="131.2" y="80.0" font-size="12" class="dim-fill"> </text><text x="131.2" y="95.0" font-size="12" class="dim-fill"> </text><text x="131.2" y="110.0" font-size="12" class="dim-fill"> </text><text x="131.2" y="125.0" font-size="12" class="dim-fill"> </text><text x="142.0" y="35.0" font-size="12" class="dim-fill"> </text><text x="142.0" y="50.0" font-size="12" class="data-fill">:</text><text x="142.0" y="65.0" font-size="12" class="dim-fill"> </text><text x="142.0" y="80.0" font-size="12" class="dim-fill"> </text><text x="142.0" y="95.0" font-size="12" class="dim-fill"> </text><text x="142.0" y="110.0" font-size="12" class="dim-fill"> </text><text x="142.0" y="125.0" font-size="12" class="dim-fill"> </text><text x="152.8" y="35.0" font-size="12" class="dim-fill"> </text><text x="152.8" y="50.0" font-size="12" class="data-fill">:</text><text x="152.8" y="65.0" font-size="12" class="dim-fill"> </text><text x="152.8" y="80.0" font-size="12" class="dim-fill"> </text><text x="152.8" y="95.0" font-size="12" class="dim-fill"> </text><text x="152.8" y="110.0" font-size="12" class="dim-fill"> </text><text x="152.8" y="125.0" font-size="12" class="dim-fill"> </text><text x="163.6" y="35.0" font-size="12" class="dim-fill"> </text><text x="163.6" y="50.0" font-size="12" class="dim-fill"> </text><text x="163.6" y="65.0" font-size="12" class="dim-fill"> </text><text x="163.6" y="80.0" font-size="12" class="dim-fill"> </text><text x="163.6" y="95.0" font-size="12" class="dim-fill"> </text><text x="163.6" y="110.0" font-size="12" class="dim-fill"> </text><text x="163.6" y="125.0" font-size="12" class="dim-fill"> </text><text x="174.4" y="35.0" font-size="12" class="dim-fill"> </text><text x="174.4" y="50.0" font-size="12" class="dim-fill"> </text><text x="174.4" y="65.0" font-size="12" class="dim-fill"> </text><text x="174.4" y="80.0" font-size="12" class="dim-fill"> </text><text x="174.4" y="95.0" font-size="12" class="dim-fill"> </text><text x="174.4" y="110.0" font-size="12" class="dim-fill"> </text><text x="174.4" y="125.0" font-size="12" class="dim-fill"> </text><text x="185.2" y="35.0" font-size="12" class="dim-fill"> </text><text x="185.2" y="50.0" font-size="12" class="data-fill">:</text><text x="185.2" y="65.0" font-size="12" class="dim-fill"> </text><text x="185.2" y="80.0" font-size="12" class="dim-fill"> </text><text x="185.2" y="95.0" font-size="12" class="dim-fill"> </text><text x="185.2" y="110.0" font-size="12" class="dim-fill"> </text><text x="185.2" y="125.0" font-size="12" class="dim-fill"> </text><text x="196.0" y="35.0" font-size="12" class="dim-fill"> </text><text x="196.0" y="50.0" font-size="12" class="dim-fill"> </text><text x="196.0" y="65.0" font-size="12" class="dim-fill"> </text><text x="196.0" y="80.0" font-size="12" class="dim-fill"> </text><text x="196.0" y="95.0" font-size="12" class="dim-fill"> </text><text x="196.0" y="110.0" font-size="12" class="dim-fill"> </text><text x="196.0" y="125.0" font-size="12" class="dim-fill"> </text><text x="206.8" y="35.0" font-size="12" class="dim-fill"> </text><text x="206.8" y="50.0" font-size="12" class="dim-fill"> </text><text x="206.8" y="65.0" font-size="12" class="dim-fill"> </text><text x="206.8" y="80.0" font-size="12" class="dim-fill"> </text><text x="206.8" y="95.0" font-size="12" class="dim-fill"> </text><text x="206.8" y="110.0" font-size="12" class="dim-fill"> </text><text x="206.8" y="125.0" font-size="12" class="dim-fill"> </text><text x="217.6" y="35.0" font-size="12" class="dim-fill"> </text><text x="217.6" y="50.0" font-size="12" class="dim-fill"> </text><text x="217.6" y="65.0" font-size="12" class="dim-fill"> </text><text x="217.6" y="80.0" font-size="12" class="dim-fill"> </text><text x="217.6" y="95.0" font-size="12" class="dim-fill"> </text><text x="217.6" y="110.0" font-size="12" class="dim-fill"> </text><text x="217.6" y="125.0" font-size="12" class="dim-fill"> </text><text x="228.4" y="35.0" font-size="12" class="dim-fill"> </text><text x="228.4" y="50.0" font-size="12" class="dim-fill"> </text><text x="228.4" y="65.0" font-size="12" class="dim-fill"> </text><text x="228.4" y="80.0" font-size="12" class="dim-fill"> </text><text x="228.4" y="95.0" font-size="12" class="dim-fill"> </text><text x="228.4" y="110.0" font-size="12" class="dim-fill"> </text><text x="228.4" y="125.0" font-size="12" class="dim-fill"> </text><text x="239.2" y="35.0" font-size="12" class="dim-fill"> </text><text x="239.2" y="50.0" font-size="12" class="dim-fill"> </text><text x="239.2" y="65.0" font-size="12" class="dim-fill"> </text><text x="239.2" y="80.0" font-size="12" class="dim-fill"> </text><text x="239.2" y="95.0" font-size="12" class="dim-fill"> </text><text x="239.2" y="110.0" font-size="12" class="dim-fill"> </text><text x="239.2" y="125.0" font-size="12" class="dim-fill"> </text><text x="250.0" y="35.0" font-size="12" class="dim-fill"> </text><text x="250.0" y="50.0" font-size="12" class="dim-fill"> </text><text x="250.0" y="65.0" font-size="12" class="dim-fill"> </text><text x="250.0" y="80.0" font-size="12" class="dim-fill"> </text><text x="250.0" y="95.0" font-size="12" class="dim-fill"> </text><text x="250.0" y="110.0" font-size="12" class="dim-fill"> </text><text x="250.0" y="125.0" font-size="12" class="dim-fill"> </text><text x="260.8" y="35.0" font-size="12" class="dim-fill"> </text><text x="260.8" y="50.0" font-size="12" class="dim-fill"> </text><text x="260.8" y="65.0" font-size="12" class="dim-fill"> </text><text x="260.8" y="80.0" font-size="12" class="dim-fill"> </text><text x="260.8" y="95.0" font-size="12" class="dim-fill"> </text><text x="260.8" y="110.0" font-size="12" class="dim-fill"> </text><text x="260.8" y="125.0" font-size="12" class="dim-fill"> </text><text x="271.6" y="35.0" font-size="12" class="dim-fill"> </text><text x="271.6" y="50.0" font-size="12" class="data-fill">:</text><text x="271.6" y="65.0" font-size="12" class="dim-fill"> </text><text x="271.6" y="80.0" font-size="12" class="dim-fill"> </text><text x="271.6" y="95.0" font-size="12" class="dim-fill"> </text><text x="271.6" y="110.0" font-size="12" class="data-fill">:</text><text x="271.6" y="125.0" font-size="12" class="dim-fill"> </text><text x="282.4" y="35.0" font-size="12" class="dim-fill"> </text><text x="282.4" y="50.0" font-size="12" class="dim-fill"> </text><text x="282.4" y="65.0" font-size="12" class="dim-fill"> </text><text x="282.4" y="80.0" font-size="12" class="dim-fill"> </text><text x="282.4" y="95.0" font-size="12" class="dim-fill"> </text><text x="282.4" y="110.0" font-size="12" class="dim-fill"> </text><text x="282.4" y="125.0" font-size="12" class="dim-fill"> </text><text x="293.2" y="35.0" font-size="12" class="dim-fill"> </text><text x="293.2" y="50.0" font-size="12" class="dim-fill"> </text><text x="293.2" y="65.0" font-size="12" class="dim-fill"> </text><text x="293.2" y="80.0" font-size="12" class="dim-fill"> </text><text x="293.2" y="95.0" font-size="12" class="dim-fill"> </text><text x="293.2" y="110.0" font-size="12" class="data-fill">:</text><text x="293.2" y="125.0" font-size="12" class="dim-fill"> </text><text x="304.0" y="35.0" font-size="12" class="dim-fill"> </text><text x="304.0" y="50.0" font-size="12" class="dim-fill"> </text><text x="304.0" y="65.0" font-size="12" class="dim-fill"> </text><text x="304.0" y="80.0" font-size="12" class="dim-fill"> </text><text x="304.0" y="95.0" font-size="12" class="dim-fill"> </text><text x="304.0" y="110.0" font-size="12" class="data-fill">:</text><text x="304.0" y="125.0" font-size="12" class="data-fill">:</text><text x="314.8" y="35.0" font-size="12" class="data-fill">:</text><text x="314.8" y="50.0" font-size="12" class="data-fill">:</text><text x="314.8" y="65.0" font-size="12" class="data-fill">:</text><text x="314.8" y="80.0" font-size="12" class="dim-fill"> </text><text x="314.8" y="95.0" font-size="12" class="dim-fill"> </text><text x="314.8" y="110.0" font-size="12" class="dim-fill"> </text><text x="314.8" y="125.0" font-size="12" class="data-fill">:</text><text x="325.6" y="35.0" font-size="12" class="data-fill">:</text><text x="325.6" y="50.0" font-size="12" class="data-fill">:</text><text x="325.6" y="65.0" font-size="12" class="data-fill">:</text><text x="325.6" y="80.0" font-size="12" class="data-fill">:</text><text x="325.6" y="95.0" font-size="12" class="data-fill">:</text><text x="325.6" y="110.0" font-size="12" class="data-fill">:</text><text x="325.6" y="125.0" font-size="12" class="data-fill">:</text><text x="336.4" y="35.0" font-size="12" class="data-fill">:</text><text x="336.4" y="50.0" font-size="12" class="data-fill">:</text><text x="336.4" y="65.0" font-size="12" class="dim-fill"> </text><text x="336.4" y="80.0" font-size="12" class="data-fill">:</text><text x="336.4" y="95.0" font-size="12" class="dim-fill"> </text><text x="336.4" y="110.0" font-size="12" class="dim-fill"> </text><text x="336.4" y="125.0" font-size="12" class="data-fill">:</text><text x="347.2" y="35.0" font-size="12" class="data-fill">:</text><text x="347.2" y="50.0" font-size="12" class="data-fill">:</text><text x="347.2" y="65.0" font-size="12" class="data-fill">:</text><text x="347.2" y="80.0" font-size="12" class="data-fill">:</text><text x="347.2" y="95.0" font-size="12" class="dim-fill"> </text><text x="347.2" y="110.0" font-size="12" class="dim-fill"> </text><text x="347.2" y="125.0" font-size="12" class="dim-fill"> </text><text x="358.0" y="35.0" font-size="12" class="data-fill">:</text><text x="358.0" y="50.0" font-size="12" class="dim-fill"> </text><text x="358.0" y="65.0" font-size="12" class="dim-fill"> </text><text x="358.0" y="80.0" font-size="12" class="dim-fill"> </text><text x="358.0" y="95.0" font-size="12" class="data-fill">:</text><text x="358.0" y="110.0" font-size="12" class="data-fill">:</text><text x="358.0" y="125.0" font-size="12" class="data-fill">:</text><text x="368.8" y="35.0" font-size="12" class="data-fill">:</text><text x="368.8" y="50.0" font-size="12" class="data-fill">:</text><text x="368.8" y="65.0" font-size="12" class="data-fill">:</text><text x="368.8" y="80.0" font-size="12" class="data-fill">:</text><text x="368.8" y="95.0" font-size="12" class="data-fill">:</text><text x="368.8" y="110.0" font-size="12" class="data-fill">:</text><text x="368.8" y="125.0" font-size="12" class="data-fill">:</text><text x="379.6" y="35.0" font-size="12" class="data-fill">:</text><text x="379.6" y="50.0" font-size="12" class="data-fill">:</text><text x="379.6" y="65.0" font-size="12" class="data-fill">:</text><text x="379.6" y="80.0" font-size="12" class="data-fill">:</text><text x="379.6" y="95.0" font-size="12" class="data-fill">:</text><text x="379.6" y="110.0" font-size="12" class="data-fill">:</text><text x="379.6" y="125.0" font-size="12" class="data-fill">:</text><text x="390.4" y="35.0" font-size="12" class="data-fill">:</text><text x="390.4" y="50.0" font-size="12" class="data-fill">:</text><text x="390.4" y="65.0" font-size="12" class="data-fill">:</text><text x="390.4" y="80.0" font-size="12" class="dim-fill"> </text><text x="390.4" y="95.0" font-size="12" class="data-fill">:</text><text x="390.4" y="110.0" font-size="12" class="data-fill">:</text><text x="390.4" y="125.0" font-size="12" class="data-fill">:</text><text x="401.2" y="35.0" font-size="12" class="data-fill">:</text><text x="401.2" y="50.0" font-size="12" class="data-fill">:</text><text x="401.2" y="65.0" font-size="12" class="data-fill">:</text><text x="401.2" y="80.0" font-size="12" class="data-fill">:</text><text x="401.2" y="95.0" font-size="12" class="data-fill">:</text><text x="401.2" y="110.0" font-size="12" class="data-fill">:</text><text x="401.2" y="125.0" font-size="12" class="data-fill">:</text><text x="412.0" y="35.0" font-size="12" class="data-fill">:</text><text x="412.0" y="50.0" font-size="12" class="data-fill">:</text><text x="412.0" y="65.0" font-size="12" class="data-fill">:</text><text x="412.0" y="80.0" font-size="12" class="data-fill">:</text><text x="412.0" y="95.0" font-size="12" class="data-fill">:</text><text x="412.0" y="110.0" font-size="12" class="data-fill">:</text><text x="412.0" y="125.0" font-size="12" class="data-fill">:</text><text x="422.8" y="35.0" font-size="12" class="data-fill">:</text><text x="422.8" y="50.0" font-size="12" class="data-fill">:</text><text x="422.8" y="65.0" font-size="12" class="data-fill">:</text><text x="422.8" y="80.0" font-size="12" class="data-fill">:</text><text x="422.8" y="95.0" font-size="12" class="data-fill">:</text><text x="422.8" y="110.0" font-size="12" class="dim-fill"> </text><text x="422.8" y="125.0" font-size="12" class="data-fill">:</text><text x="433.6" y="35.0" font-size="12" class="data-fill">:</text><text x="433.6" y="50.0" font-size="12" class="data-fill">:</text><text x="433.6" y="65.0" font-size="12" class="data-fill">:</text><text x="433.6" y="80.0" font-size="12" class="data-fill">:</text><text x="433.6" y="95.0" font-size="12" class="data-fill">:</text><text x="433.6" y="110.0" font-size="12" class="dim-fill"> </text><text x="433.6" y="125.0" font-size="12" class="data-fill">:</text><text x="444.4" y="35.0" font-size="12" class="dim-fill"> </text><text x="444.4" y="50.0" font-size="12" class="data-fill">:</text><text x="444.4" y="65.0" font-size="12" class="data-fill">:</text><text x="444.4" y="80.0" font-size="12" class="data-fill">:</text><text x="444.4" y="95.0" font-size="12" class="data-fill">:</text><text x="444.4" y="110.0" font-size="12" class="data-fill">:</text><text x="444.4" y="125.0" font-size="12" class="dim-fill"> </text><text x="455.2" y="35.0" font-size="12" class="data-fill">:</text><text x="455.2" y="50.0" font-size="12" class="dim-fill"> </text><text x="455.2" y="65.0" font-size="12" class="dim-fill"> </text><text x="455.2" y="80.0" font-size="12" class="dim-fill"> </text><text x="455.2" y="95.0" font-size="12" class="data-fill">:</text><text x="455.2" y="110.0" font-size="12" class="dim-fill"> </text><text x="455.2" y="125.0" font-size="12" class="dim-fill"> </text><text x="466.0" y="35.0" font-size="12" class="data-fill">:</text><text x="466.0" y="50.0" font-size="12" class="dim-fill"> </text><text x="466.0" y="65.0" font-size="12" class="dim-fill"> </text><text x="466.0" y="80.0" font-size="12" class="dim-fill"> </text><text x="466.0" y="95.0" font-size="12" class="dim-fill"> </text><text x="466.0" y="110.0" font-size="12" class="dim-fill"> </text><text x="466.0" y="125.0" font-size="12" class="data-fill">:</text><text x="476.8" y="35.0" font-size="12" class="dim-fill"> </text><text x="476.8" y="50.0" font-size="12" class="dim-fill"> </text><text x="476.8" y="65.0" font-size="12" class="dim-fill"> </text><text x="476.8" y="80.0" font-size="12" class="dim-fill"> </text><text x="476.8" y="95.0" font-size="12" class="dim-fill"> </text><text x="476.8" y="110.0" font-size="12" class="dim-fill"> </text><text x="476.8" y="125.0" font-size="12" class="dim-fill"> </text><text x="487.6" y="35.0" font-size="12" class="dim-fill"> </text><text x="487.6" y="50.0" font-size="12" class="data-fill">:</text><text x="487.6" y="65.0" font-size="12" class="data-fill">:</text><text x="487.6" y="80.0" font-size="12" class="data-fill">:</text><text x="487.6" y="95.0" font-size="12" class="data-fill">:</text><text x="487.6" y="110.0" font-size="12" class="data-fill">:</text><text x="487.6" y="125.0" font-size="12" class="data-fill">:</text><text x="498.4" y="35.0" font-size="12" class="data-fill">:</text><text x="498.4" y="50.0" font-size="12" class="data-fill">:</text><text x="498.4" y="65.0" font-size="12" class="dim-fill"> </text><text x="498.4" y="80.0" font-size="12" class="data-fill">:</text><text x="498.4" y="95.0" font-size="12" class="dim-fill"> </text><text x="498.4" y="110.0" font-size="12" class="data-fill">:</text><text x="498.4" y="125.0" font-size="12" class="data-fill">:</text><text x="509.2" y="35.0" font-size="12" class="data-fill">:</text><text x="509.2" y="50.0" font-size="12" class="data-fill">:</text><text x="509.2" y="65.0" font-size="12" class="data-fill">:</text><text x="509.2" y="80.0" font-size="12" class="dim-fill"> </text><text x="509.2" y="95.0" font-size="12" class="dim-fill"> </text><text x="509.2" y="110.0" font-size="12" class="data-fill">:</text><text x="509.2" y="125.0" font-size="12" class="data-fill">:</text><text x="520.0" y="35.0" font-size="12" class="data-fill">:</text><text x="520.0" y="50.0" font-size="12" class="data-fill">:</text><text x="520.0" y="65.0" font-size="12" class="dim-fill"> </text><text x="520.0" y="80.0" font-size="12" class="dim-fill"> </text><text x="520.0" y="95.0" font-size="12" class="dim-fill"> </text><text x="520.0" y="110.0" font-size="12" class="dim-fill"> </text><text x="520.0" y="125.0" font-size="12" class="dim-fill"> </text><text x="530.8" y="35.0" font-size="12" class="dim-fill"> </text><text x="530.8" y="50.0" font-size="12" class="data-fill">:</text><text x="530.8" y="65.0" font-size="12" class="data-fill">:</text><text x="530.8" y="80.0" font-size="12" class="data-fill">:</text><text x="530.8" y="95.0" font-size="12" class="data-fill">:</text><text x="530.8" y="110.0" font-size="12" class="dim-fill"> </text><text x="530.8" y="125.0" font-size="12" class="data-fill">:</text><text x="541.6" y="35.0" font-size="12" class="dim-fill"> </text><text x="541.6" y="50.0" font-size="12" class="dim-fill"> </text><text x="541.6" y="65.0" font-size="12" class="data-fill">:</text><text x="541.6" y="80.0" font-size="12" class="data-fill">:</text><text x="541.6" y="95.0" font-size="12" class="data-fill">:</text><text x="541.6" y="110.0" font-size="12" class="data-fill">:</text><text x="541.6" y="125.0" font-size="12" class="data-fill">:</text><text x="552.4" y="35.0" font-size="12" class="dim-fill"> </text><text x="552.4" y="50.0" font-size="12" class="data-fill">:</text><text x="552.4" y="65.0" font-size="12" class="data-fill">:</text><text x="552.4" y="80.0" font-size="12" class="dim-fill"> </text><text x="552.4" y="95.0" font-size="12" class="data-fill">:</text><text x="552.4" y="110.0" font-size="12" class="data-fill">:</text><text x="552.4" y="125.0" font-size="12" class="data-fill">:</text><text x="563.2" y="35.0" font-size="12" class="data-fill">:</text><text x="563.2" y="50.0" font-size="12" class="data-fill">:</text><text x="563.2" y="65.0" font-size="12" class="data-fill">:</text><text x="563.2" y="80.0" font-size="12" class="data-fill">:</text><text x="563.2" y="95.0" font-size="12" class="data-fill">:</text><text x="563.2" y="110.0" font-size="12" class="data-fill">#</text><text x="563.2" y="125.0" font-size="12" class="data-fill">+</text><text x="574.0" y="35.0" font-size="12" class="data-fill">@</text><text x="574.0" y="50.0" font-size="12" class="data-fill">+</text><text x="574.0" y="65.0" font-size="12" class="data-fill">:</text><text x="574.0" y="80.0" font-size="12" class="data-fill">:</text><text x="574.0" y="95.0" font-size="12" class="data-fill">:</text><text x="574.0" y="110.0" font-size="12" class="data-fill">:</text><text x="574.0" y="125.0" font-size="12" class="data-fill">:</text><text x="584.8" y="35.0" font-size="12" class="data-fill">+</text><text x="584.8" y="50.0" font-size="12" class="data-fill">+</text><text x="584.8" y="65.0" font-size="12" class="data-fill">:</text><text x="584.8" y="80.0" font-size="12" class="data-fill">+</text><text x="584.8" y="95.0" font-size="12" class="data-fill">+</text><text x="584.8" y="110.0" font-size="12" class="data-fill">:</text><text x="584.8" y="125.0" font-size="12" class="data-fill">:</text><text x="595.6" y="35.0" font-size="12" class="data-fill">+</text><text x="595.6" y="50.0" font-size="12" class="data-fill">:</text><text x="595.6" y="65.0" font-size="12" class="data-fill">:</text><text x="595.6" y="80.0" font-size="12" class="dim-fill"> </text><text x="595.6" y="95.0" font-size="12" class="data-fill">:</text><text x="595.6" y="110.0" font-size="12" class="data-fill">:</text><text x="595.6" y="125.0" font-size="12" class="data-fill">:</text></g><rect y="20.0" width="2" height="113.0" class="data-fill" opacity="0"><animate attributeName="x" from="34.0" to="610.4" begin="0.20s" dur="1.55s" fill="freeze"/><set attributeName="opacity" to=".65" begin="0.20s"/><set attributeName="opacity" to="0" begin="1.75s"/></rect></svg>